<?xml version="1.0" encoding="UTF-8" standalone="no"?>
<svg width="198px" height="78px" viewBox="0 0 198 78" version="1.1" xmlns="http://www.w3.org/2000/svg" xmlns:xlink="http://www.w3.org/1999/xlink">
    <!-- Generator: Sketch 39.1 (31720) - http://www.bohemiancoding.com/sketch -->
    <title>logo</title>
    <desc>Created with Sketch.</desc>
    <defs>
        <polygon id="path-1" points="8.59428551e-21 0.590009756 8.59428551e-21 16.6339122 12.7835659 16.6339122 12.7835659 0.590009756 0 0.590009756"></polygon>
        <polygon id="path-3" points="8.59428551e-21 0.590009756 8.59428551e-21 16.6339122 12.7835659 16.6339122 12.7835659 0.590009756 0 0.590009756"></polygon>
    </defs>
    <g id="Page-1" stroke="none" stroke-width="1" fill="none" fill-rule="evenodd">
        <g id="Desktop-HD-Copy-2" transform="translate(-150.000000, -54.000000)">
            <g id="header" transform="translate(0.000000, 32.000000)">
                <g id="logo" transform="translate(150.000000, 22.000000)">
                    <g id="Group-3" transform="translate(0.000000, 30.316634)">
                        <mask id="mask-2" fill="white">
                            <use xlink:href="#path-1"></use>
                        </mask>
                        <g id="Clip-2"></g>
                        <path d="M12.5311756,16.6339122 L10.1341024,16.6339122 C9.95780976,16.6339122 9.88107805,16.5609854 9.88107805,16.3821561 L9.88107805,13.7047902 C9.88107805,11.7002537 10.1119073,8.15283902 10.1543951,7.54849756 L10.0618098,7.51425366 C9.98190732,7.72161951 9.70288293,8.9024 9.39532195,9.56825366 L7.28298049,14.2945463 C7.2366878,14.397278 7.16312683,14.4486439 7.05659024,14.4486439 L5.75341951,14.4486439 C5.65702927,14.4486439 5.58156585,14.397278 5.52639512,14.2945463 L3.4146878,9.56825366 C3.10459024,8.9024 2.82937073,7.72161951 2.75200488,7.51425366 L2.65054146,7.54849756 C2.69556585,8.15283902 2.92829756,11.7002537 2.92829756,13.7047902 L2.92829756,16.3821561 C2.92829756,16.5609854 2.84649268,16.6339122 2.67337073,16.6339122 L0.257907317,16.6339122 C0.0803463415,16.6339122 -0.000190243902,16.5609854 -0.000190243902,16.3821561 L-0.000190243902,0.852546341 C-0.000190243902,0.67435122 0.0803463415,0.590009756 0.257907317,0.590009756 L2.39878537,0.590009756 C2.49327317,0.590009756 2.57190732,0.642009756 2.62454146,0.749814634 L6.01024878,8.84722927 C6.08190732,9.01844878 6.28737073,9.78893659 6.33873659,9.99186341 L6.41673659,9.99186341 C6.47317561,9.78893659 6.69766341,9.01844878 6.77376098,8.84722927 L10.1543951,0.749814634 C10.2140049,0.642009756 10.2901024,0.590009756 10.3890293,0.590009756 L12.5311756,0.590009756 C12.7042976,0.590009756 12.7835659,0.67435122 12.7835659,0.852546341 L12.7835659,16.3821561 C12.7835659,16.5609854 12.7042976,16.6339122 12.5311756,16.6339122" id="Fill-1" fill="#1A1A1A" mask="url(#mask-2)"></path>
                    </g>
                    <g id="Group-6" transform="translate(0.000000, 30.316634)">
                        <mask id="mask-4" fill="white">
                            <use xlink:href="#path-3"></use>
                        </mask>
                        <g id="Clip-5"></g>
                        <path d="M12.5311756,16.6339122 L10.1341024,16.6339122 C9.95780976,16.6339122 9.88107805,16.5609854 9.88107805,16.3821561 L9.88107805,13.7047902 C9.88107805,11.7002537 10.1119073,8.15283902 10.1543951,7.54849756 L10.0618098,7.51425366 C9.98190732,7.72161951 9.70288293,8.9024 9.39532195,9.56825366 L7.28298049,14.2945463 C7.2366878,14.397278 7.16312683,14.4486439 7.05659024,14.4486439 L5.75341951,14.4486439 C5.65702927,14.4486439 5.58156585,14.397278 5.52639512,14.2945463 L3.4146878,9.56825366 C3.10459024,8.9024 2.82937073,7.72161951 2.75200488,7.51425366 L2.65054146,7.54849756 C2.69556585,8.15283902 2.92829756,11.7002537 2.92829756,13.7047902 L2.92829756,16.3821561 C2.92829756,16.5609854 2.84649268,16.6339122 2.67337073,16.6339122 L0.257907317,16.6339122 C0.0803463415,16.6339122 -0.000190243902,16.5609854 -0.000190243902,16.3821561 L-0.000190243902,0.852546341 C-0.000190243902,0.67435122 0.0803463415,0.590009756 0.257907317,0.590009756 L2.39878537,0.590009756 C2.49327317,0.590009756 2.57190732,0.642009756 2.62454146,0.749814634 L6.01024878,8.84722927 C6.08190732,9.01844878 6.28737073,9.78893659 6.33873659,9.99186341 L6.41673659,9.99186341 C6.47317561,9.78893659 6.69766341,9.01844878 6.77376098,8.84722927 L10.1543951,0.749814634 C10.2140049,0.642009756 10.2901024,0.590009756 10.3890293,0.590009756 L12.5311756,0.590009756 C12.7042976,0.590009756 12.7835659,0.67435122 12.7835659,0.852546341 L12.7835659,16.3821561 C12.7835659,16.5609854 12.7042976,16.6339122 12.5311756,16.6339122" id="Fill-4" fill="#1A1A1A" mask="url(#mask-4)"></path>
                    </g>
                    <path d="M21.3104878,40.5639317 L20.5755122,37.5853463 C20.5241463,37.4033463 20.349122,36.3811024 20.288878,36.1902244 L20.219122,36.1902244 C20.1639512,36.3811024 19.9629268,37.3748098 19.9090244,37.5853463 L19.1505854,40.5353951 C19.1004878,40.7097854 19.0193171,40.9437854 19.0193171,41.0458829 C19.0193171,41.1784195 19.1226829,41.276078 19.2996098,41.276078 L21.1601951,41.276078 C21.3364878,41.276078 21.4366829,41.1784195 21.4366829,41.0458829 C21.4366829,40.9437854 21.3624878,40.7097854 21.3104878,40.5639317 M25.8972683,46.9504195 L23.3226341,46.9504195 C23.196439,46.9504195 23.0956098,46.8984195 23.0670732,46.7792 L22.3092683,44.092322 C22.2788293,43.9788098 22.1811707,43.9509073 22.0556098,43.9509073 L18.4073659,43.9509073 C18.2773659,43.9509073 18.1797073,43.9788098 18.1549756,44.092322 L17.3959024,46.7792 C17.3654634,46.8984195 17.264,46.9504195 17.1365366,46.9504195 L14.5910732,46.9504195 C14.4109756,46.9504195 14.3126829,46.8774927 14.3126829,46.7506634 C14.3126829,46.6453951 14.3938537,46.4957366 14.4414146,46.294078 L19.0713171,31.0910537 C19.1004878,30.9591512 19.2038537,30.9065171 19.326878,30.9065171 L21.1601951,30.9065171 C21.2908293,30.9065171 21.3910244,30.9591512 21.4138537,31.0910537 L26.0539024,46.294078 C26.1014634,46.4443707 26.177561,46.6453951 26.177561,46.7506634 C26.177561,46.8774927 26.0729268,46.9504195 25.8972683,46.9504195" id="Fill-7" fill="#1A1A1A"></path>
                    <path d="M37.3251561,45.1329561 C36.5648146,46.3372 35.4195463,47.2072488 33.3053024,47.2072488 L32.0636439,47.2072488 C29.1573512,47.2072488 27.3208634,45.3498341 27.3208634,42.7041756 L27.3208634,35.1622732 C27.3208634,32.514078 29.1573512,30.6668098 32.0636439,30.6668098 L33.3053024,30.6668098 C35.4195463,30.6668098 36.5648146,31.5184683 37.3251561,32.7246146 C37.5540829,33.0936878 37.8121805,33.5090537 37.8121805,33.6656878 C37.8121805,33.7348098 37.758278,33.7944195 37.6574488,33.8407122 L35.6224732,34.8870537 C35.5229122,34.9333463 35.4195463,35.0157854 35.3187171,35.0157854 C35.2400829,35.0157854 35.1627171,34.9599805 35.1119854,34.8350537 C34.650961,33.7348098 33.9939854,33.3295902 33.3053024,33.3295902 L32.0636439,33.3295902 C31.0635951,33.3295902 30.2144732,34.1730049 30.2144732,35.1622732 L30.2144732,42.7041756 C30.2144732,43.6845659 31.0635951,44.5286146 32.0636439,44.5286146 L33.3053024,44.5286146 C33.9939854,44.5286146 34.650961,44.1297366 35.1119854,43.0320293 C35.1627171,42.900761 35.2400829,42.8544683 35.3187171,42.8544683 C35.4195463,42.8544683 35.5229122,42.9280293 35.6224732,42.9882732 L37.6574488,44.0212976 C37.758278,44.0726634 37.8121805,44.1297366 37.8121805,44.2039317 C37.8121805,44.3548585 37.5540829,44.7651512 37.3251561,45.1329561" id="Fill-9" fill="#1A1A1A"></path>
                    <path d="M50.8227073,46.9505463 L48.433878,46.9505463 C48.2493415,46.9505463 48.1745122,46.8776195 48.1745122,46.6987902 L48.1745122,40.405522 C48.1745122,40.2317659 48.1003171,40.1467902 47.9195854,40.1467902 L43.1831463,40.1467902 C43.0062195,40.1467902 42.9244146,40.2317659 42.9244146,40.405522 L42.9244146,46.6987902 C42.9244146,46.8776195 42.8597317,46.9505463 42.6682195,46.9505463 L40.2590976,46.9505463 C40.0758293,46.9505463 40.0029024,46.8776195 40.0029024,46.6987902 L40.0029024,31.1691805 C40.0029024,30.9909854 40.0758293,30.9066439 40.2590976,30.9066439 L42.6682195,30.9066439 C42.8597317,30.9066439 42.9244146,30.9909854 42.9244146,31.1691805 L42.9244146,37.2259122 C42.9244146,37.402839 43.0062195,37.4789366 43.1831463,37.4789366 L47.9195854,37.4789366 C48.1003171,37.4789366 48.1745122,37.402839 48.1745122,37.2259122 L48.1745122,31.1691805 C48.1745122,30.9909854 48.2493415,30.9066439 48.433878,30.9066439 L50.8227073,30.9066439 C51.0021707,30.9066439 51.0687561,30.9909854 51.0687561,31.1691805 L51.0687561,46.6987902 C51.0687561,46.8776195 51.0021707,46.9505463 50.8227073,46.9505463" id="Fill-11" fill="#1A1A1A"></path>
                    <path d="M56.8805805,46.9505463 L54.4638488,46.9505463 C54.2843854,46.9505463 54.2032146,46.8776195 54.2032146,46.6987902 L54.2032146,31.1691805 C54.2032146,30.9909854 54.2843854,30.9066439 54.4638488,30.9066439 L56.8805805,30.9066439 C57.0575073,30.9066439 57.1393122,30.9909854 57.1393122,31.1691805 L57.1393122,46.6987902 C57.1393122,46.8776195 57.0575073,46.9505463 56.8805805,46.9505463" id="Fill-13" fill="#1A1A1A"></path>
                    <path d="M70.5766195,46.9505463 L68.4706195,46.9505463 C68.3659854,46.9505463 68.2911561,46.8985463 68.2372537,46.827522 L63.6752049,38.5290829 C63.5800829,38.3508878 63.2217902,37.4358146 63.1450585,37.2259122 L63.0480341,37.2569854 C63.0936927,37.8651317 63.194522,41.5285951 63.194522,43.538839 L63.194522,46.6987902 C63.194522,46.8776195 63.1215951,46.9505463 62.9395951,46.9505463 L60.5190585,46.9505463 C60.3453024,46.9505463 60.2704732,46.8776195 60.2704732,46.6987902 L60.2704732,31.1691805 C60.2704732,30.9909854 60.3453024,30.9066439 60.5190585,30.9066439 L62.6631073,30.9066439 C62.7639366,30.9066439 62.8368634,30.9586439 62.8926683,31.0404488 L67.4477415,39.3921561 C67.5555463,39.5728878 67.9094,40.4854244 67.9842293,40.6953268 L68.082522,40.6642537 C68.0387659,40.0535707 67.9334976,36.3812293 67.9334976,34.3709854 L67.9334976,31.1691805 C67.9334976,30.9909854 68.0076927,30.9066439 68.1871561,30.9066439 L70.5766195,30.9066439 C70.7624244,30.9066439 70.838522,30.9909854 70.838522,31.1691805 L70.838522,46.6987902 C70.838522,46.8776195 70.7624244,46.9505463 70.5766195,46.9505463" id="Fill-15" fill="#1A1A1A"></path>
                    <path d="M83.5178341,46.9505463 L74.5237366,46.9505463 C74.3430049,46.9505463 74.2738829,46.8776195 74.2738829,46.6987902 L74.2738829,31.1691805 C74.2738829,30.9909854 74.3430049,30.9066439 74.5237366,30.9066439 L83.5178341,30.9066439 C83.6966634,30.9066439 83.768322,30.9909854 83.768322,31.1691805 L83.768322,33.3297171 C83.768322,33.5091805 83.6966634,33.5833756 83.5178341,33.5833756 L77.4496878,33.5833756 C77.2765659,33.5833756 77.2042732,33.6658146 77.2042732,33.840839 L77.2042732,37.2259122 C77.2042732,37.402839 77.2765659,37.4789366 77.4496878,37.4789366 L82.420761,37.4789366 C82.6014927,37.4789366 82.6706146,37.5569366 82.6706146,37.7364 L82.6706146,39.9051805 C82.6706146,40.0770341 82.6014927,40.1467902 82.420761,40.1467902 L77.4496878,40.1467902 C77.2765659,40.1467902 77.2042732,40.2317659 77.2042732,40.405522 L77.2042732,44.0214244 C77.2042732,44.2040585 77.2765659,44.279522 77.4496878,44.279522 L83.5178341,44.279522 C83.6966634,44.279522 83.768322,44.3549854 83.768322,44.5287415 L83.768322,46.6987902 C83.768322,46.8776195 83.6966634,46.9505463 83.5178341,46.9505463" id="Fill-17" fill="#1A1A1A"></path>
                    <path d="M21.3104878,40.5639317 L20.5755122,37.5853463 C20.5241463,37.4033463 20.349122,36.3811024 20.288878,36.1902244 L20.219122,36.1902244 C20.1639512,36.3811024 19.9629268,37.3748098 19.9090244,37.5853463 L19.1505854,40.5353951 C19.1004878,40.7097854 19.0193171,40.9437854 19.0193171,41.0458829 C19.0193171,41.1784195 19.1226829,41.276078 19.2996098,41.276078 L21.1601951,41.276078 C21.3364878,41.276078 21.4366829,41.1784195 21.4366829,41.0458829 C21.4366829,40.9437854 21.3624878,40.7097854 21.3104878,40.5639317 M25.8972683,46.9504195 L23.3226341,46.9504195 C23.196439,46.9504195 23.0956098,46.8984195 23.0670732,46.7792 L22.3092683,44.092322 C22.2788293,43.9788098 22.1811707,43.9509073 22.0556098,43.9509073 L18.4073659,43.9509073 C18.2773659,43.9509073 18.1797073,43.9788098 18.1549756,44.092322 L17.3959024,46.7792 C17.3654634,46.8984195 17.264,46.9504195 17.1365366,46.9504195 L14.5910732,46.9504195 C14.4109756,46.9504195 14.3126829,46.8774927 14.3126829,46.7506634 C14.3126829,46.6453951 14.3938537,46.4957366 14.4414146,46.294078 L19.0713171,31.0910537 C19.1004878,30.9591512 19.2038537,30.9065171 19.326878,30.9065171 L21.1601951,30.9065171 C21.2908293,30.9065171 21.3910244,30.9591512 21.4138537,31.0910537 L26.0539024,46.294078 C26.1014634,46.4443707 26.177561,46.6453951 26.177561,46.7506634 C26.177561,46.8774927 26.0729268,46.9504195 25.8972683,46.9504195" id="Fill-19" fill="#1A1A1A"></path>
                    <path d="M37.3251561,45.1329561 C36.5648146,46.3372 35.4195463,47.2072488 33.3053024,47.2072488 L32.0636439,47.2072488 C29.1573512,47.2072488 27.3208634,45.3498341 27.3208634,42.7041756 L27.3208634,35.1622732 C27.3208634,32.514078 29.1573512,30.6668098 32.0636439,30.6668098 L33.3053024,30.6668098 C35.4195463,30.6668098 36.5648146,31.5184683 37.3251561,32.7246146 C37.5540829,33.0936878 37.8121805,33.5090537 37.8121805,33.6656878 C37.8121805,33.7348098 37.758278,33.7944195 37.6574488,33.8407122 L35.6224732,34.8870537 C35.5229122,34.9333463 35.4195463,35.0157854 35.3187171,35.0157854 C35.2400829,35.0157854 35.1627171,34.9599805 35.1119854,34.8350537 C34.650961,33.7348098 33.9939854,33.3295902 33.3053024,33.3295902 L32.0636439,33.3295902 C31.0635951,33.3295902 30.2144732,34.1730049 30.2144732,35.1622732 L30.2144732,42.7041756 C30.2144732,43.6845659 31.0635951,44.5286146 32.0636439,44.5286146 L33.3053024,44.5286146 C33.9939854,44.5286146 34.650961,44.1297366 35.1119854,43.0320293 C35.1627171,42.900761 35.2400829,42.8544683 35.3187171,42.8544683 C35.4195463,42.8544683 35.5229122,42.9280293 35.6224732,42.9882732 L37.6574488,44.0212976 C37.758278,44.0726634 37.8121805,44.1297366 37.8121805,44.2039317 C37.8121805,44.3548585 37.5540829,44.7651512 37.3251561,45.1329561" id="Fill-21" fill="#1A1A1A"></path>
                    <path d="M50.8227073,46.9505463 L48.433878,46.9505463 C48.2493415,46.9505463 48.1745122,46.8776195 48.1745122,46.6987902 L48.1745122,40.405522 C48.1745122,40.2317659 48.1003171,40.1467902 47.9195854,40.1467902 L43.1831463,40.1467902 C43.0062195,40.1467902 42.9244146,40.2317659 42.9244146,40.405522 L42.9244146,46.6987902 C42.9244146,46.8776195 42.8597317,46.9505463 42.6682195,46.9505463 L40.2590976,46.9505463 C40.0758293,46.9505463 40.0029024,46.8776195 40.0029024,46.6987902 L40.0029024,31.1691805 C40.0029024,30.9909854 40.0758293,30.9066439 40.2590976,30.9066439 L42.6682195,30.9066439 C42.8597317,30.9066439 42.9244146,30.9909854 42.9244146,31.1691805 L42.9244146,37.2259122 C42.9244146,37.402839 43.0062195,37.4789366 43.1831463,37.4789366 L47.9195854,37.4789366 C48.1003171,37.4789366 48.1745122,37.402839 48.1745122,37.2259122 L48.1745122,31.1691805 C48.1745122,30.9909854 48.2493415,30.9066439 48.433878,30.9066439 L50.8227073,30.9066439 C51.0021707,30.9066439 51.0687561,30.9909854 51.0687561,31.1691805 L51.0687561,46.6987902 C51.0687561,46.8776195 51.0021707,46.9505463 50.8227073,46.9505463" id="Fill-23" fill="#1A1A1A"></path>
                    <path d="M56.8805805,46.9505463 L54.4638488,46.9505463 C54.2843854,46.9505463 54.2032146,46.8776195 54.2032146,46.6987902 L54.2032146,31.1691805 C54.2032146,30.9909854 54.2843854,30.9066439 54.4638488,30.9066439 L56.8805805,30.9066439 C57.0575073,30.9066439 57.1393122,30.9909854 57.1393122,31.1691805 L57.1393122,46.6987902 C57.1393122,46.8776195 57.0575073,46.9505463 56.8805805,46.9505463" id="Fill-25" fill="#1A1A1A"></path>
                    <path d="M70.5766195,46.9505463 L68.4706195,46.9505463 C68.3659854,46.9505463 68.2911561,46.8985463 68.2372537,46.827522 L63.6752049,38.5290829 C63.5800829,38.3508878 63.2217902,37.4358146 63.1450585,37.2259122 L63.0480341,37.2569854 C63.0936927,37.8651317 63.194522,41.5285951 63.194522,43.538839 L63.194522,46.6987902 C63.194522,46.8776195 63.1215951,46.9505463 62.9395951,46.9505463 L60.5190585,46.9505463 C60.3453024,46.9505463 60.2704732,46.8776195 60.2704732,46.6987902 L60.2704732,31.1691805 C60.2704732,30.9909854 60.3453024,30.9066439 60.5190585,30.9066439 L62.6631073,30.9066439 C62.7639366,30.9066439 62.8368634,30.9586439 62.8926683,31.0404488 L67.4477415,39.3921561 C67.5555463,39.5728878 67.9094,40.4854244 67.9842293,40.6953268 L68.082522,40.6642537 C68.0387659,40.0535707 67.9334976,36.3812293 67.9334976,34.3709854 L67.9334976,31.1691805 C67.9334976,30.9909854 68.0076927,30.9066439 68.1871561,30.9066439 L70.5766195,30.9066439 C70.7624244,30.9066439 70.838522,30.9909854 70.838522,31.1691805 L70.838522,46.6987902 C70.838522,46.8776195 70.7624244,46.9505463 70.5766195,46.9505463" id="Fill-27" fill="#1A1A1A"></path>
                    <path d="M83.5178341,46.9505463 L74.5237366,46.9505463 C74.3430049,46.9505463 74.2738829,46.8776195 74.2738829,46.6987902 L74.2738829,31.1691805 C74.2738829,30.9909854 74.3430049,30.9066439 74.5237366,30.9066439 L83.5178341,30.9066439 C83.6966634,30.9066439 83.768322,30.9909854 83.768322,31.1691805 L83.768322,33.3297171 C83.768322,33.5091805 83.6966634,33.5833756 83.5178341,33.5833756 L77.4496878,33.5833756 C77.2765659,33.5833756 77.2042732,33.6658146 77.2042732,33.840839 L77.2042732,37.2259122 C77.2042732,37.402839 77.2765659,37.4789366 77.4496878,37.4789366 L82.420761,37.4789366 C82.6014927,37.4789366 82.6706146,37.5569366 82.6706146,37.7364 L82.6706146,39.9051805 C82.6706146,40.0770341 82.6014927,40.1467902 82.420761,40.1467902 L77.4496878,40.1467902 C77.2765659,40.1467902 77.2042732,40.2317659 77.2042732,40.405522 L77.2042732,44.0214244 C77.2042732,44.2040585 77.2765659,44.279522 77.4496878,44.279522 L83.5178341,44.279522 C83.6966634,44.279522 83.768322,44.3549854 83.768322,44.5287415 L83.768322,46.6987902 C83.768322,46.8776195 83.6966634,46.9505463 83.5178341,46.9505463" id="Fill-29" fill="#1A1A1A"></path>
                    <path d="M158.32662,27.4121805 L94.3393512,27.4121805 C93.4318878,27.4121805 92.2764732,28.034278 91.7615463,28.7851073 L85.8379854,37.5800829 C85.3255951,38.3296439 85.3255951,39.5548146 85.8379854,40.3088146 L91.7615463,49.0961805 C92.2764732,49.8489122 93.4318878,50.4710098 94.3393512,50.4710098 L158.32662,50.4710098 C159.231546,50.4710098 159.976034,49.7195463 159.976034,48.8133512 L159.976034,29.0634976 C159.976034,28.1566683 159.231546,27.4121805 158.32662,27.4121805" id="Fill-31" fill="#C41010"></path>
                    <path d="M104.136849,33.5836293 L101.356117,33.5836293 C101.182361,33.5836293 101.10119,33.6654341 101.10119,33.8404585 L101.10119,46.6984098 C101.10119,46.877239 101.032702,46.9508 100.849434,46.9508 L98.4555317,46.9508 C98.2748,46.9508 98.1980683,46.877239 98.1980683,46.6984098 L98.1980683,33.8404585 C98.1980683,33.6654341 98.1257756,33.5836293 97.9425073,33.5836293 L95.1681171,33.5836293 C94.9949951,33.5836293 94.9169951,33.5094341 94.9169951,33.3293366 L94.9169951,31.1694341 C94.9169951,30.9906049 94.9949951,30.9068976 95.1681171,30.9068976 L104.136849,30.9068976 C104.305532,30.9068976 104.386068,30.9906049 104.386068,31.1694341 L104.386068,33.3293366 C104.386068,33.5094341 104.305532,33.5836293 104.136849,33.5836293" id="Fill-33" fill="#FFFFFF"></path>
                    <path d="M114.370512,35.1625268 C114.370512,34.1434537 113.583537,33.3292098 112.560659,33.3292098 L111.310122,33.3292098 C110.327195,33.3292098 109.481878,34.1732585 109.481878,35.1625268 L109.481878,42.7044293 C109.481878,43.6841854 110.327195,44.5288683 111.310122,44.5288683 L112.560659,44.5288683 C113.583537,44.5288683 114.370512,43.7196976 114.370512,42.7044293 L114.370512,35.1625268 Z M112.560659,47.2075024 L111.310122,47.2075024 C108.410171,47.2075024 106.580024,45.3494537 106.580024,42.7044293 L106.580024,35.1625268 C106.580024,32.5136976 108.410171,30.6664293 111.310122,30.6664293 L112.560659,30.6664293 C115.444756,30.6664293 117.297098,32.5136976 117.297098,35.1625268 L117.297098,42.7044293 C117.297098,45.3494537 115.444756,47.2075024 112.560659,47.2075024 L112.560659,47.2075024 Z" id="Fill-35" fill="#FFFFFF"></path>
                    <path d="M127.923551,35.1625268 C127.923551,34.1434537 127.136576,33.3292098 126.121307,33.3292098 L124.8676,33.3292098 C123.876429,33.3292098 123.039356,34.1732585 123.039356,35.1625268 L123.039356,42.7044293 C123.039356,43.6841854 123.876429,44.5288683 124.8676,44.5288683 L126.121307,44.5288683 C127.136576,44.5288683 127.923551,43.7196976 127.923551,42.7044293 L127.923551,35.1625268 Z M126.121307,47.2075024 L124.8676,47.2075024 C121.96321,47.2075024 120.136234,45.3494537 120.136234,42.7044293 L120.136234,35.1625268 C120.136234,32.5136976 121.96321,30.6664293 124.8676,30.6664293 L126.121307,30.6664293 C128.998429,30.6664293 130.853307,32.5136976 130.853307,35.1625268 L130.853307,42.7044293 C130.853307,45.3494537 128.998429,47.2075024 126.121307,47.2075024 L126.121307,47.2075024 Z" id="Fill-37" fill="#FFFFFF"></path>
                    <path d="M143.198171,46.9505463 L134.208512,46.9505463 C134.03222,46.9505463 133.954854,46.8776195 133.954854,46.6987902 L133.954854,31.1691805 C133.954854,30.9909854 134.03222,30.9066439 134.208512,30.9066439 L136.626512,30.9066439 C136.807244,30.9066439 136.881439,30.9909854 136.881439,31.1691805 L136.881439,44.0214244 C136.881439,44.2040585 136.963244,44.279522 137.143341,44.279522 L143.198171,44.279522 C143.370659,44.279522 143.448659,44.3549854 143.448659,44.5287415 L143.448659,46.6987902 C143.448659,46.8776195 143.370659,46.9505463 143.198171,46.9505463" id="Fill-39" fill="#FFFFFF"></path>
                    <path d="M150.913829,47.2075659 L149.900463,47.2075659 C147.784317,47.2075659 146.640317,46.3375171 145.877439,45.1332732 C145.645341,44.7648341 145.38661,44.3551756 145.38661,44.2042488 C145.38661,44.1294195 145.444317,44.0729805 145.548317,44.0216146 L147.580122,42.9885902 C147.680317,42.9283463 147.784317,42.8547854 147.884512,42.8547854 C147.956171,42.8547854 148.035439,42.901078 148.09061,43.0323463 C148.549098,44.1294195 149.209244,44.5282976 149.900463,44.5282976 L150.913829,44.5282976 C151.905634,44.5282976 152.752854,43.6842488 152.752854,42.7038585 C152.752854,41.3290293 151.402122,40.8147366 150.021585,40.1799561 C148.017049,39.2185902 145.801976,38.1741512 145.801976,35.1625902 C145.801976,32.513761 147.630854,30.6664927 150.535878,30.6664927 L150.937927,30.6664927 C153.051537,30.6664927 154.204415,31.5187854 154.959049,32.7242976 C155.193049,33.0940049 155.446073,33.5093707 155.446073,33.6653707 C155.446073,33.7351268 155.401683,33.7947366 155.297683,33.8403951 L153.248756,34.8867366 C153.159976,34.9336634 153.051537,35.0154683 152.951976,35.0154683 C152.876512,35.0154683 152.795341,34.9596634 152.752854,34.8347366 C152.292463,33.7351268 151.62661,33.3292732 150.937927,33.3292732 L150.535878,33.3292732 C149.541537,33.3292732 148.705732,34.173322 148.705732,35.1625902 C148.705732,36.4632244 150.178854,36.8456146 151.655146,37.531761 C153.595,38.424639 155.657244,39.6225415 155.657244,42.7038585 C155.657244,45.3495171 153.817585,47.2075659 150.913829,47.2075659" id="Fill-41" fill="#FFFFFF"></path>
                    <path d="M110.868439,51.6385366 C106.939902,56.5791707 100.871122,59.7511707 94.076878,59.7511707 C86.9636585,59.7511707 80.656439,56.2880976 76.7545366,50.9549268 L61.3752195,50.9549268 C61.3790244,50.9650732 61.3790244,50.9650732 61.3790244,50.9777561 L57.9616098,54.504878 C59.0555122,56.9552195 60.4062439,59.2787317 61.9611707,61.4329268 L66.7312195,60.2324878 C68.3184878,62.2148293 70.1232683,64.0170732 72.102439,65.6157561 L70.9051707,70.382 C73.0568293,71.9502439 75.3733659,73.2946341 77.8218049,74.4037561 L81.354,70.9736585 C83.689561,71.8912683 86.1557561,72.5520488 88.7088293,72.9452195 L90.0456098,77.6734146 C91.3690732,77.8097561 92.711561,77.8776098 94.076878,77.8776098 C95.411122,77.8776098 96.746,77.8097561 98.0466341,77.6772195 L99.393561,72.9547317 C101.950439,72.5590244 104.414732,71.9014146 106.757902,70.9869756 L110.291366,74.4107317 C112.739805,73.3130244 115.058244,71.9654634 117.208634,70.408 L116.009463,65.6430244 C117.993073,64.0430732 119.799756,62.2376585 121.400976,60.263561 L126.169756,61.4557561 C127.723415,59.3110732 129.079854,56.9907317 130.172488,54.5397561 L127.356244,51.6385366 L110.868439,51.6385366 Z" id="Fill-43" fill="#1A1A1A"></path>
                    <path d="M127.356244,26.2333659 L130.172488,23.3359512 C129.079854,20.8722927 127.723415,18.564 126.169756,16.4123415 L121.400976,17.6172195 C119.799756,15.634878 117.993073,13.8237561 116.009463,12.2320488 L117.208634,7.4524878 C115.058244,5.90326829 112.739805,4.55634146 110.291366,3.45736585 L106.757902,6.88556098 C104.414732,5.97429268 101.950439,5.31097561 99.393561,4.91336585 L98.0466341,0.194682927 C96.746,0.0653170732 95.411122,0 94.076878,0 C92.711561,0 91.3690732,0.0653170732 90.0456098,0.201658537 L88.7088293,4.9235122 C86.1557561,5.31478049 83.689561,5.98760976 81.354,6.90078049 L77.8218049,3.47258537 C75.3733659,4.58487805 73.0568293,5.92546341 70.9051707,7.488 L72.102439,12.2561463 C70.1232683,13.8503902 68.3184878,15.660878 66.7312195,17.6406829 L61.9611707,16.432 C60.4062439,18.5880976 59.0555122,20.9103415 57.9616098,23.3587805 L61.3790244,26.8947805 C61.3790244,26.901122 61.3790244,26.9080976 61.3752195,26.9163415 L76.7545366,26.9163415 C80.656439,21.5850732 86.9636585,18.1162927 94.076878,18.1162927 C100.871122,18.1162927 106.939902,21.2901951 110.868439,26.2333659 L127.356244,26.2333659 Z" id="Fill-45" fill="#1A1A1A"></path>
                    <path d="M197.569371,49.9714293 L195.616834,49.9714293 C195.477322,49.9714293 195.414541,49.9118195 195.414541,49.7697707 L195.414541,47.5883073 C195.414541,45.9553805 195.603517,43.0700146 195.639029,42.5696732 L195.557224,42.5493805 C195.49381,42.7269415 195.261712,43.6667463 195.013761,44.2076732 L193.296493,48.067722 C193.252102,48.1520634 193.191859,48.1932829 193.108785,48.1932829 L192.044688,48.1932829 C191.972395,48.1932829 191.90581,48.1520634 191.863322,48.067722 L190.137176,44.2076732 C189.887956,43.6667463 189.666005,42.7269415 189.612102,42.5493805 L189.520785,42.5696732 C189.557566,43.0700146 189.747176,45.9553805 189.747176,47.5883073 L189.747176,49.7697707 C189.747176,49.9118195 189.685663,49.9714293 189.543615,49.9714293 L187.570151,49.9714293 C187.419859,49.9714293 187.358346,49.9118195 187.358346,49.7697707 L187.358346,37.1160146 C187.358346,36.9733317 187.419859,36.9004049 187.570151,36.9004049 L189.314054,36.9004049 C189.395224,36.9004049 189.461176,36.9486 189.505566,37.0304049 L192.253322,43.6255268 C192.322444,43.7840634 192.484785,44.401722 192.528541,44.5627951 L192.584346,44.5627951 C192.627468,44.401722 192.810737,43.7840634 192.881127,43.6255268 L195.639029,37.0304049 C195.673907,36.9486 195.742395,36.9004049 195.827371,36.9004049 L197.569371,36.9004049 C197.71459,36.9004049 197.769761,36.9733317 197.769761,37.1160146 L197.769761,49.7697707 C197.769761,49.9118195 197.71459,49.9714293 197.569371,49.9714293" id="Fill-47" fill="#1A1A1A"></path>
                    <path d="M174.467039,48.5024927 C173.850015,49.4879561 172.907673,50.1836146 171.188502,50.1836146 L170.177673,50.1836146 C167.803429,50.1836146 166.311917,48.6711756 166.311917,46.5125415 L166.311917,40.3619561 C166.311917,38.2128341 167.803429,36.7022976 170.177673,36.7022976 L171.188502,36.7022976 C172.907673,36.7022976 173.850015,37.4030293 174.467039,38.3815171 C174.658551,38.6871756 174.859576,39.027078 174.859576,39.1456634 C174.859576,39.2185902 174.824698,39.2509317 174.737185,39.2921512 L173.073185,40.1469805 C172.994551,40.183761 172.907673,40.2440049 172.830941,40.2440049 C172.76182,40.2440049 172.710454,40.2027854 172.660356,40.105761 C172.28938,39.2185902 171.750356,38.8729805 171.188502,38.8729805 L170.177673,38.8729805 C169.368502,38.8729805 168.68299,39.5629317 168.68299,40.3619561 L168.68299,46.5125415 C168.68299,47.3223463 169.368502,47.9989805 170.177673,47.9989805 L171.188502,47.9989805 C171.750356,47.9989805 172.28938,47.6711268 172.660356,46.7826878 C172.710454,46.679322 172.76182,46.6393707 172.830941,46.6393707 C172.907673,46.6393707 172.994551,46.6983463 173.073185,46.7503463 L174.737185,47.5886878 C174.824698,47.6337122 174.859576,47.6711268 174.859576,47.7389805 C174.859576,47.8582 174.658551,48.1936634 174.467039,48.5024927" id="Fill-49" fill="#1A1A1A"></path>
                    <path d="M182.665093,40.3620195 C182.665093,39.5458732 182.026507,38.8730439 181.197678,38.8730439 L180.175434,38.8730439 C179.364361,38.8730439 178.685824,39.5629951 178.685824,40.3620195 L178.685824,46.5126049 C178.685824,47.3224098 179.364361,47.9990439 180.175434,47.9990439 L181.197678,47.9990439 C182.026507,47.9990439 182.665093,47.3401659 182.665093,46.5126049 L182.665093,40.3620195 Z M181.197678,50.183678 L180.175434,50.183678 C177.813239,50.183678 176.315385,48.6706049 176.315385,46.5126049 L176.315385,40.3620195 C176.315385,38.2128976 177.813239,36.7017268 180.175434,36.7017268 L181.197678,36.7017268 C183.53641,36.7017268 185.052654,38.2128976 185.052654,40.3620195 L185.052654,46.5126049 C185.052654,48.6706049 183.53641,50.183678 181.197678,50.183678 L181.197678,50.183678 Z" id="Fill-51" fill="#1A1A1A"></path>
                    <path d="M162.033649,48.5712341 C162.033649,47.7779171 162.674137,47.1336244 163.464917,47.1336244 C164.256332,47.1336244 164.89682,47.7779171 164.89682,48.5712341 C164.89682,49.3639171 164.256332,50.0075756 163.464917,50.0075756 C162.674137,50.0075756 162.033649,49.3639171 162.033649,48.5712341" id="Fill-53" fill="#1A1A1A"></path>
                </g>
            </g>
        </g>
    </g>
</svg>