<svg width="131" height="53" viewBox="0 0 131 53" fill="none" xmlns="http://www.w3.org/2000/svg">
<path d="M31.2841 31.9108V38.3288H29.4023V22.7285H35.0032C35.8095 22.7285 36.5119 22.8443 37.1095 23.0738C37.7071 23.3043 38.2037 23.612 38.5995 23.9989C38.9952 24.3857 39.294 24.8349 39.4959 25.3474C39.6977 25.8599 39.7986 26.3991 39.7986 26.963V27.6318C39.7986 28.1967 39.6977 28.7389 39.4959 29.2583C39.294 29.7787 38.9923 30.2358 38.5886 30.6286C38.185 31.0224 37.6853 31.334 37.0877 31.5645C36.4902 31.7951 35.7956 31.9098 35.0041 31.9098H31.2851L31.2841 31.9108ZM31.2841 30.1725H34.7786C36.8691 30.1725 37.9149 29.2811 37.9149 27.4982V27.0976C37.9149 26.31 37.6576 25.6748 37.1422 25.192C36.6267 24.7092 35.8392 24.4678 34.7786 24.4678H31.2841V30.1725Z" fill="#FFFCFC"/>
<path d="M42.1523 36.6256H45.1491V28.7809H42.8449V27.1761H46.8973V36.6256H49.6715V38.2303H42.1523V36.6256ZM44.4328 23.8786C44.4328 23.4482 44.5862 23.0802 44.8919 22.7754C45.1976 22.4707 45.5676 22.3184 46.001 22.3184C46.4343 22.3184 46.8033 22.4707 47.11 22.7754C47.4158 23.0802 47.5691 23.4482 47.5691 23.8786C47.5691 24.309 47.4158 24.677 47.11 24.9817C46.8033 25.2865 46.4343 25.4388 46.001 25.4388C45.5676 25.4388 45.1976 25.2865 44.8919 24.9817C44.5852 24.677 44.4328 24.3099 44.4328 23.8786Z" fill="#FFFCFC"/>
<path d="M54.3957 31.8673H54.7766L59.0111 27.2766H61.1619V27.4102L56.5466 32.4688V32.8695L61.6992 38.1953V38.3288H59.5483L54.8211 33.471H54.3957V38.3288H52.6484V22.7285H54.3957V31.8653V31.8673Z" fill="#FFFCFC"/>
<path d="M65.0324 33.1382C65.0769 34.2374 65.4202 35.1219 66.0633 35.7907C66.7054 36.4595 67.6018 36.7939 68.7514 36.7939C69.2738 36.7939 69.7299 36.7345 70.1177 36.6158C70.5056 36.4971 70.838 36.3338 71.115 36.1251C71.391 35.9173 71.6156 35.6759 71.7868 35.4009C71.9579 35.1258 72.0965 34.833 72.2013 34.5203L73.8595 34.9655C73.5459 35.9905 72.9671 36.8265 72.1232 37.4726C71.2792 38.1186 70.1405 38.4422 68.7069 38.4422C67.9154 38.4422 67.1872 38.3046 66.5224 38.0296C65.8575 37.7546 65.2867 37.3648 64.8088 36.8592C64.3309 36.3546 63.9579 35.7521 63.6888 35.0536C63.4197 34.3551 63.2852 33.5824 63.2852 32.7355V32.2003C63.2852 31.4276 63.4227 30.7073 63.6997 30.0385C63.9757 29.3697 64.3606 28.7939 64.8533 28.3111C65.346 27.8283 65.9248 27.4493 66.5897 27.1743C67.2545 26.8992 67.9748 26.7617 68.7514 26.7617C69.6626 26.7617 70.4502 26.9289 71.115 27.2633C71.7799 27.5977 72.325 28.0103 72.7504 28.5C73.1758 28.9898 73.4895 29.525 73.6913 30.1048C73.8931 30.6846 73.9941 31.2188 73.9941 31.7095V33.1362H65.0324V33.1382ZM68.7514 28.414C68.2587 28.414 67.7996 28.4921 67.3732 28.6484C66.9468 28.8048 66.5738 29.0234 66.2533 29.3064C65.9317 29.5883 65.6705 29.9188 65.4697 30.2977C65.2679 30.6766 65.1373 31.0892 65.0779 31.5344H72.2468C72.2172 31.0595 72.1014 30.6282 71.8996 30.2423C71.6977 29.8565 71.4366 29.529 71.115 29.2618C70.7935 28.9947 70.4284 28.787 70.0178 28.6376C69.6072 28.4892 69.1847 28.415 68.7524 28.415L68.7514 28.414Z" fill="#FFFCFC"/>
<path d="M78.7532 29.9316C78.7532 30.4668 78.9808 30.8754 79.4368 31.1574C79.892 31.4394 80.725 31.6254 81.935 31.7144C83.234 31.8183 84.2234 32.127 84.9031 32.6395C85.5828 33.1519 85.9221 33.8989 85.9221 34.8794V35.013C85.9221 35.5482 85.8133 36.027 85.5976 36.4505C85.381 36.8739 85.0822 37.2341 84.7013 37.5309C84.3204 37.8287 83.8573 38.0543 83.3122 38.2106C82.767 38.3669 82.1734 38.4441 81.5313 38.4441C80.6646 38.4441 79.9217 38.3293 79.3023 38.0988C78.682 37.8683 78.1675 37.5635 77.7569 37.1846C77.3463 36.8057 77.0367 36.3753 76.8269 35.8925C76.6172 35.4097 76.4984 34.9229 76.4688 34.4332L78.1269 34.0325C78.2011 34.8794 78.5306 35.5591 79.1123 36.0716C79.6951 36.5841 80.4717 36.8403 81.4423 36.8403C82.2635 36.8403 82.9244 36.681 83.425 36.3615C83.9256 36.0419 84.1749 35.5927 84.1749 35.013C84.1749 34.3887 83.9286 33.9435 83.4359 33.6753C82.9432 33.4082 82.1437 33.237 81.0386 33.1628C79.7544 33.0738 78.768 32.777 78.0814 32.2714C77.3938 31.7668 77.0505 31.0308 77.0505 30.0651V29.9316C77.0505 29.4121 77.1623 28.9551 77.3869 28.5613C77.6105 28.1675 77.9132 27.8371 78.2941 27.57C78.675 27.3028 79.1044 27.102 79.5823 26.9684C80.0601 26.8349 80.5598 26.7676 81.0832 26.7676C81.8143 26.7676 82.4574 26.8675 83.0095 27.0683C83.5615 27.2692 84.0246 27.5294 84.3985 27.848C84.7715 28.1675 85.0594 28.5356 85.2613 28.9511C85.4631 29.3676 85.5937 29.7832 85.653 30.1987L83.9949 30.5994C83.9197 29.8861 83.6328 29.329 83.1321 28.9284C82.6315 28.5277 81.9785 28.3268 81.1722 28.3268C80.8586 28.3268 80.5558 28.3605 80.265 28.4267C79.9741 28.494 79.7159 28.5939 79.4923 28.7275C79.2687 28.8611 79.0886 29.0283 78.955 29.2291C78.8205 29.43 78.7532 29.6634 78.7532 29.9316Z" fill="#FFFCFC"/>
<path d="M97.6372 26.9353C97.6372 26.4308 97.5363 25.9846 97.3344 25.5977C97.1326 25.2119 96.8605 24.8923 96.5172 24.639C96.1739 24.3867 95.7782 24.1938 95.33 24.0593C94.8818 23.9257 94.4119 23.8584 93.9182 23.8584C93.4848 23.8584 93.0742 23.9138 92.6864 24.0256C92.2976 24.1374 91.9503 24.2967 91.6446 24.5045C91.3379 24.7122 91.0955 24.9695 90.9164 25.2732C90.7373 25.5779 90.6473 25.9311 90.6473 26.3318V26.4654C90.6473 26.8968 90.7373 27.2638 90.9164 27.5685C91.0955 27.8733 91.3606 28.1335 91.7119 28.3482C92.0631 28.5638 92.4994 28.7419 93.0228 28.8834C93.5452 29.0249 94.1576 29.1476 94.86 29.2515C96.5024 29.5047 97.7124 29.9836 98.489 30.689C99.2657 31.3944 99.6545 32.3422 99.6545 33.5305V33.7976C99.6545 34.4664 99.5387 35.0788 99.3072 35.6358C99.0757 36.1928 98.7324 36.6717 98.2763 37.0734C97.8202 37.4741 97.2573 37.7867 96.5845 38.0093C95.9117 38.2319 95.1361 38.3437 94.2545 38.3437C93.2533 38.3437 92.3688 38.1993 91.6001 37.9094C90.8303 37.6195 90.1882 37.2188 89.6738 36.7063C89.1583 36.1938 88.7665 35.5923 88.4974 34.9007C88.2283 34.2102 88.0938 33.4563 88.0938 32.639V31.9702H89.9755V32.5055C89.9755 33.8728 90.3525 34.8978 91.1074 35.5804C91.8613 36.2641 92.911 36.6054 94.2545 36.6054C95.419 36.6054 96.2966 36.3492 96.8872 35.8367C97.4769 35.3242 97.7717 34.6445 97.7717 33.7976V33.664C97.7717 32.8468 97.469 32.2235 96.8645 31.7921C96.26 31.3618 95.2775 31.0491 93.9182 30.8562C93.1267 30.7523 92.4133 30.593 91.7791 30.3773C91.144 30.1617 90.6028 29.8797 90.1546 29.5305C89.7064 29.1812 89.3631 28.7617 89.1237 28.271C88.8842 27.7803 88.7655 27.2015 88.7655 26.5327V26.2655C88.7655 25.6561 88.8922 25.0991 89.1464 24.5945C89.4007 24.0899 89.7549 23.6516 90.211 23.2796C90.6661 22.9086 91.2112 22.6217 91.8464 22.4219C92.4806 22.221 93.1791 22.1211 93.9409 22.1211C94.8224 22.1211 95.61 22.2477 96.3045 22.5C96.999 22.7533 97.5847 23.0907 98.0636 23.5141C98.5415 23.9376 98.9036 24.4352 99.1499 25.0071C99.3963 25.5789 99.5199 26.1775 99.5199 26.8008V27.7367H97.6382V26.9344L97.6372 26.9353Z" fill="#FFFCFC"/>
<path d="M113.066 32.6398C113.066 33.5609 112.913 34.3741 112.607 35.0806C112.3 35.786 111.894 36.3806 111.386 36.8634C110.879 37.3462 110.285 37.7142 109.605 37.9665C108.926 38.2188 108.22 38.3455 107.488 38.3455C106.756 38.3455 106.032 38.2188 105.36 37.9665C104.688 37.7142 104.098 37.3462 103.59 36.8634C103.083 36.3806 102.675 35.786 102.369 35.0806C102.063 34.3751 101.91 33.5619 101.91 32.6398V32.3727C101.91 31.4664 102.063 30.6601 102.369 29.9546C102.675 29.2492 103.086 28.6507 103.601 28.1609C104.115 27.6712 104.71 27.2992 105.382 27.0469C106.054 26.7946 106.756 26.668 107.488 26.668C108.22 26.668 108.922 26.7946 109.594 27.0469C110.265 27.3002 110.859 27.6712 111.374 28.1609C111.89 28.6507 112.3 29.2492 112.606 29.9546C112.912 30.6601 113.065 31.4664 113.065 32.3727V32.6398H113.066ZM107.488 36.6962C108.025 36.6962 108.522 36.6032 108.978 36.4172C109.433 36.2312 109.833 35.9601 110.176 35.6039C110.52 35.2478 110.789 34.8203 110.983 34.3227C111.177 33.825 111.274 33.2641 111.274 32.6398V32.3727C111.274 31.779 111.177 31.2329 110.983 30.7343C110.789 30.2366 110.52 29.8092 110.176 29.453C109.833 29.0969 109.429 28.8179 108.966 28.617C108.503 28.4162 108.011 28.3163 107.488 28.3163C106.966 28.3163 106.472 28.4162 106.009 28.617C105.546 28.8179 105.142 29.0959 104.799 29.453C104.456 29.8092 104.187 30.2366 103.993 30.7343C103.799 31.2319 103.702 31.778 103.702 32.3727V32.6398C103.702 33.2641 103.799 33.825 103.993 34.3227C104.187 34.8203 104.456 35.2478 104.799 35.6039C105.142 35.9601 105.542 36.2322 105.997 36.4172C106.452 36.6032 106.949 36.6962 107.487 36.6962H107.488Z" fill="#FFFCFC"/>
<path d="M114.652 27.6008V26.1969H121.698V27.6008H114.652ZM116.747 38.2315V25.3054C116.747 24.9938 116.764 24.6851 116.797 24.3804C116.831 24.0757 116.9 23.7838 117.004 23.5058C117.109 23.2268 117.273 22.9695 117.497 22.7311C117.743 22.464 118.012 22.2691 118.303 22.1464C118.594 22.0237 118.899 21.9446 119.216 21.907C119.534 21.8704 119.846 21.8516 120.151 21.8516H121.697V23.2337H120.263C119.636 23.2337 119.167 23.3861 118.857 23.6908C118.547 23.9955 118.392 24.4744 118.392 25.1283V38.2325H116.746L116.747 38.2315Z" fill="#FFFCFC"/>
<path d="M123.068 27.4022V25.9983H130.999V27.4022H123.068ZM130.999 38.033C130.319 38.1745 129.65 38.2299 128.989 38.2002C128.328 38.1705 127.738 38.029 127.219 37.7767C126.699 37.5244 126.306 37.1307 126.037 36.5954C125.821 36.1502 125.703 35.6981 125.684 35.242C125.665 34.7849 125.657 34.2635 125.657 33.6768V22.6562H127.292V33.6095C127.292 34.1151 127.298 34.5366 127.309 34.8739C127.32 35.2123 127.397 35.5111 127.538 35.7713C127.807 36.2689 128.235 36.5667 128.821 36.6627C129.406 36.7597 130.132 36.7369 130.999 36.5954V38.033Z" fill="#FFFCFC"/>
<path d="M11.2729 19.7458L0.38494 13.4435L0.144531 13.3119V0L11.6954 6.55554L11.3125 7.24909L11.2699 7.22534L0.936024 1.35939V12.8489L11.6687 19.0611L11.2729 19.7458Z" fill="#FFFCFC"/>
<path d="M22.4246 13.4017C22.3593 13.4017 22.294 13.3859 22.2326 13.3523C21.5431 12.9684 20.8515 12.5786 20.1817 12.2016C18.945 11.5041 17.6657 10.7839 16.3479 10.0745L16.3182 10.0567C16.0481 9.87958 15.776 9.74602 15.4881 9.60553L15.4614 9.59168C14.7501 9.17218 14.0377 8.78138 13.3481 8.40246C12.6388 8.01264 11.9046 7.60898 11.1785 7.1796C10.9905 7.0678 10.9281 6.82541 11.0399 6.63743C11.1507 6.44945 11.3941 6.38712 11.5821 6.49892C12.2974 6.92236 13.0256 7.32306 13.73 7.7099C14.4196 8.08883 15.1329 8.48061 15.8502 8.90307C16.1381 9.04455 16.4359 9.19098 16.7367 9.38688C18.0565 10.0963 19.3338 10.8165 20.5705 11.513C21.2383 11.89 21.9289 12.2788 22.6175 12.6607C22.8084 12.7666 22.8777 13.008 22.7708 13.1989C22.6986 13.3295 22.5641 13.4027 22.4246 13.4027V13.4017Z" fill="#FFFCFC"/>
<path d="M0 52.1666V38.0137L11.626 44.7255C11.7557 44.7997 11.8358 44.9392 11.8368 45.0886C11.8378 45.238 11.7566 45.3775 11.627 45.4537H11.626L0 52.1666ZM0.791493 39.3839V50.7953L10.6743 45.0896L0.791493 39.3839Z" fill="#FFFCFC"/>
<path d="M0.000990332 39.3754V26.0368C0.000990332 25.8696 0.0910101 25.7132 0.235458 25.6281C0.379905 25.5441 0.56096 25.5431 0.706397 25.6262L12.2978 32.2243L0 39.3754H0.000990332ZM0.792483 26.5859V38.0002L10.7119 32.2322L0.792483 26.5859Z" fill="#FFFCFC"/>
<path d="M11.4976 45.4189C11.4273 45.4189 11.3571 45.4001 11.2948 45.3644L0.520567 39.1651C0.331598 39.0562 0.214844 38.8544 0.214844 38.6367C0.214844 38.4191 0.331597 38.2163 0.519576 38.1074L11.8993 31.541V45.2467L11.6974 45.3654C11.6361 45.401 11.5668 45.4189 11.4976 45.4189ZM1.1874 38.6358L11.1078 44.3434V32.9123L1.1874 38.6367V38.6358Z" fill="#FFFCFC"/>
<path d="M11.9025 32.9105L0.262605 26.2204C0.128051 26.1432 0.0439581 25.9978 0.0429688 25.8424C0.0429688 25.6871 0.126071 25.5417 0.260624 25.4635L11.9015 18.6992V32.9095L11.9025 32.9105ZM1.18965 25.8405L11.111 31.5432V20.0754L1.18965 25.8405Z" fill="#FFFCFC"/>
<path d="M22.4358 26.1816C22.3616 26.1816 22.2874 26.1618 22.2211 26.1232L10.7188 19.3847L22.1252 12.8173C22.2765 12.7302 22.4645 12.7302 22.6149 12.8173C22.7663 12.9043 22.8593 13.0676 22.8593 13.2417V25.7572C22.8593 25.9085 22.7771 26.05 22.6456 26.1252C22.5803 26.1628 22.5071 26.1816 22.4348 26.1816H22.4358ZM12.2948 19.3906L22.0688 25.117V13.7641L12.2948 19.3916V19.3906Z" fill="#FFFCFC"/>
<path d="M11.1094 32.9174V18.6973L22.3674 25.2924C22.5524 25.4002 22.6622 25.5931 22.6622 25.8068C22.6622 26.0206 22.5514 26.2135 22.3674 26.3213L11.1094 32.9164V32.9174ZM11.9009 20.0784V31.5363L21.6797 25.8068L11.9009 20.0774V20.0784Z" fill="#FFFCFC"/>
</svg>
