<?xml version="1.0" encoding="utf-8"?>
<!-- Generator: Adobe Illustrator 26.0.1, SVG Export Plug-In . SVG Version: 6.00 Build 0)  -->
<svg version="1.1" id="Layer_1" xmlns="http://www.w3.org/2000/svg" xmlns:xlink="http://www.w3.org/1999/xlink" x="0px" y="0px"
	 viewBox="0 0 403.1 89.6" style="enable-background:new 0 0 403.1 89.6;" xml:space="preserve">
<style type="text/css">
	.st0{fill:#F37021;}
</style>
<path class="st0" d="M97.3,54.1l-15.6-0.1c1.7-4.2,5-7.6,10.1-7.6c3.6,0,5.6,2.5,5.6,5.8C97.4,52.9,97.3,54.1,97.3,54.1 M92.1,33.1
	c-17.5-0.1-30.6,13.8-30.7,32.2c0,12.5,8.9,23.2,27,23.3c12,0,21.4-6.8,21.4-6.8l-4.5-13.3c0,0-8,5.3-15.8,5.3
	c-6.6,0-10.4-3.5-10.4-9.5l33.4,0.1c1.2-3.3,1.8-6.8,2-10.4C114.7,41.7,107.1,33.2,92.1,33.1"/>
<path class="st0" d="M157.4,33.4c-7.3,0-14.7,4.4-17.7,9.1h-0.2c0.5-1.7,1-3.5,1.4-5.2l0.5-2.7l-17.2-0.1l-10.5,53l17.8,0.1
	l4.6-23.4c1.5-7.7,7.5-14.6,14.5-14.6c3.2,0,4.7,1.4,4.7,4.5c0,1-0.1,2.1-0.3,3.1l-6.1,30.4l17.8,0.1l6.6-33.3
	c0.4-1.9,0.7-3.9,0.7-5.9C174,37.4,166.5,33.4,157.4,33.4"/>
<path class="st0" d="M202.2,74.3c-5.1,0-8.3-3.6-8.3-9.4c0-10.4,7.3-16.3,13.3-16.3c5.8,0,8.2,4.4,8.2,9.4
	C215.4,67.9,207.9,74.3,202.2,74.3 M223.9,14.2l-4.3,21.7c-0.2,1-0.3,2.4-0.3,2.4h-0.2c-3-3.6-8.9-4.8-13.4-4.8
	c-15.7,0-29.8,13-29.9,32.6c0,13.8,7.5,22.8,20.5,22.8c6,0,11.7-2.8,15.3-7.7h0.2c0,0-0.3,1.3-0.6,3l-0.7,3.5l16.7,0.1l14.6-73.5
	L223.9,14.2z"/>
<path class="st0" d="M265,74.4c-5.7,0-9.8-3.6-9.7-9.8c0-9.7,7.9-16,14.9-16c5.6,0,9.7,3.8,9.6,10.1C279.7,68.4,272.1,74.4,265,74.4
	 M270.3,33.8c-16.6-0.1-33.1,13-33.1,31.6c0,14.5,11.4,23.8,27.4,23.9c16.5,0.1,33.1-12.8,33.1-31.6
	C297.8,43.2,286.3,33.8,270.3,33.8"/>
<path class="st0" d="M318.4,51.1c0-2,3.2-2.8,5.8-2.8c7.9,0,12.3,3.9,12.3,3.9l7.7-12.1c0,0-7.2-6.1-19.9-6.1
	c-11.3,0-22.3,6.8-22.3,17.1c-0.1,15.6,20.9,16.5,20.9,21.3c0,1.9-3,2.7-5.8,2.7c-4.9-0.1-9.6-1.8-13.4-4.8l-8.9,11.4
	c6.4,4.9,14.2,7.7,22.2,7.8c13.3,0,22.4-6.7,22.4-17C339.5,56.4,318.4,55.2,318.4,51.1"/>
<path class="st0" d="M370.3,74.8c-5.7,0-9.8-3.6-9.7-9.8c0-9.7,7.9-16,14.9-16c5.6,0,9.7,3.8,9.6,10.1
	C385.1,68.7,377.4,74.8,370.3,74.8 M375.7,34.1c-16.6-0.1-33.1,13-33.1,31.6C342.5,80.2,354,89.5,370,89.6
	c16.5,0.1,33.1-12.8,33.1-31.6C403.2,43.6,391.7,34.2,375.7,34.1"/>
<path class="st0" d="M89.6,19.7L68.2,0l-2.1,10.5l-28.6-0.1c-13.9,0-28.7,8.4-28.8,24.2C8.8,48.1,19.9,54,28,58.3
	c4.5,2.4,8.4,4.5,8.4,6.9c0,5.5-7.6,5.5-7.9,5.5L3.9,70.6L0,89.5l28.2,0.1C44.3,89.6,56.9,79,56.9,65.3C57,51.7,45.9,46,37.8,41.8
	c-4.7-2.4-8.7-4.5-8.7-7c0-4.1,5.5-5.4,8.1-5.4l25.2,0.1l-2,10.2L89.6,19.7z"/>
</svg>
